<?xml version="1.0" ?><!DOCTYPE svg  PUBLIC '-//W3C//DTD SVG 1.1//EN'  'http://www.w3.org/Graphics/SVG/1.1/DTD/svg11.dtd'><svg enable-background="new 0 0 100 100" id="Layer_1" version="1.1" viewBox="0 0 100 100" xml:space="preserve" xmlns="http://www.w3.org/2000/svg" xmlns:xlink="http://www.w3.org/1999/xlink"><g><rect fill="#FFFFFF" height="6" width="67.421" x="16.31" y="20.703"/><rect fill="#FFFFFF" height="13.572" width="6.456" x="28.098" y="18.785"/><rect fill="#FFFFFF" height="13.572" width="6.456" x="65.313" y="18.785"/><path d="M58.764,62.395c1.22-0.548,3.156-1.481,4.184-2.322c1.812-1.483,1.812-4.377,1.812-7.258   c0-1.352-0.493-3.621-3.793-3.621h-1.045c0.932-1.058,1.618-2.479,1.824-3.922c0.263-1.831-0.218-3.484-1.392-4.78   c-1.13-1.248-2.64-1.906-4.202-1.825c-1.163,0.057-2.238,0.448-3.118,1.121c-0.902-0.513-2.013-0.785-3.135-0.72   c-0.659,0.032-1.305,0.192-1.903,0.467c-1.599-0.854-3.241-1.054-5.156-0.626c-1.974,0.446-4.167,1.856-4.656,4.489   c-2.961,2.595-3.059,5.319-2.896,7.895c0.115,1.81,1.025,3.488,2.469,4.601c0.143,1.284,0.686,2.543,1.51,3.465   c0.711,0.797,1.584,1.312,2.562,1.528v0.796c-0.004,0.041-0.009,0.077-0.005,0.147c0.004,0.071,0.004,0.149,0.005,0.227v0.165   c-0.032,1.752-0.761,4.768-0.761,4.768c-0.209,1.028,0.447,2.069,1.478,2.262c2.967,0.556,9.046,1.357,14.952,0.072   c1.025-0.223,1.662-1.305,1.442-2.331l-0.711-3.33v-0.569L58.764,62.395z M60.967,51.568c1.166,0,1.418,0.222,1.418,1.328   c0,2.141,0,4.568-0.941,5.338c-0.601,0.491-1.761,1.1-2.812,1.601c-0.145-0.094-0.285-0.219-0.397-0.444l-0.006,0.008v-7.831   H60.967z M57.378,48.297c-0.296,0.181-0.616,0.281-0.951,0.299l-0.1,0.002c-0.768,0-1.433-0.415-1.762-0.663l-0.847-0.639   l-0.73,0.77c-0.653,0.689-1.937,1.096-2.865,1.141l-0.18,0.005c-0.077,0-0.151-0.003-0.224-0.007l-0.816-0.062l-0.348,0.742   c-0.479,1.024-1.334,1.797-2.47,2.234l-0.967,0.372l0.237,1.008c0.631,2.682,0.25,4.317-1.133,4.859   c-0.414,0.163-0.812,0.254-1.183,0.273L42.9,58.631c-0.73,0-1.355-0.287-1.862-0.854c-0.689-0.772-0.94-1.815-0.943-2.535   l-0.004-0.654l-0.555-0.347c-0.847-0.529-1.785-1.621-1.879-3.099c-0.15-2.381-0.067-4.22,2.385-6.205l0.387-0.313l0.048-0.495   c0.203-2.078,2.086-2.723,2.885-2.903c0.473-0.107,0.906-0.158,1.323-0.158c0.933,0,1.773,0.263,2.644,0.827l0.647,0.42   l0.647-0.422c0.424-0.276,0.893-0.429,1.394-0.454l0.174-0.004c0.82,0,1.636,0.288,2.13,0.75l0.903,0.845l0.808-0.935   c0.552-0.638,1.347-1.014,2.24-1.058l0.133-0.003c0.811,0,1.568,0.363,2.191,1.05c0.695,0.766,0.964,1.724,0.802,2.849   C59.202,46.287,58.354,47.701,57.378,48.297z" fill="#FFFFFF"/><path d="M84.045,29.904h-68.09v28.215l3.408,0.169l-3.408,1.416v14.269h3c0.077,0,7.815,0.022,12.787,1.906   c1.353,0.514,2.593,1.086,3.905,1.691c3.884,1.791,7.899,3.644,14.353,3.644c6.452,0,10.468-1.853,14.35-3.644   c1.314-0.606,2.554-1.178,3.907-1.691c4.952-1.877,12.711-1.906,12.788-1.906l2.999-0.004V42.736l-2.538-0.925l2.538-1.01V29.904z    M78.045,40.648l-2.13,1.142l2.13,0.637v16.83l-3.482,1.866l3.482,1.042v5.917c-3.113,0.191-8.05,0.723-11.914,2.188   c-1.55,0.588-2.944,1.23-4.294,1.853C58.24,73.781,55.135,75.215,50,75.215c-5.136,0-8.242-1.434-11.839-3.094   c-1.349-0.621-2.743-1.266-4.292-1.852c-3.864-1.465-8.801-1.996-11.914-2.188v-9.107l3.473-1.272l-3.473-0.396v-13.66l6.002-1.712   l-6.002-1.356v-4.675h56.09V40.648z" fill="#FFFFFF"/></g></svg>